<svg xmlns="http://www.w3.org/2000/svg" width="1286.822" height="159.229"><g fill="#ff877c" data-name="Grupo 147"><path d="m366.666 39.015-24.057 91.025h-22.725l-15.11-58.4a48.693 48.693 0 0 1-1.46-10.22h-.254a62.091 62.091 0 0 1-1.65 10.22l-15.486 58.4h-23.677l-23.93-91.025h22.407l12.822 60.62a72.364 72.364 0 0 1 1.206 10.405h.381a50.389 50.389 0 0 1 1.841-10.659l16.5-60.366h21.967l14.917 61.125a74.85 74.85 0 0 1 1.46 9.775h.256a65.536 65.536 0 0 1 1.33-10.153l12.57-60.747Zm66.143 91.025h-54.59V39.015h52.5v16.694h-31.997v20.249h29.771v16.631h-29.771v20.82h34.087Zm14.6 0V39.015h33.135q15.234 0 23.423 5.586a17.966 17.966 0 0 1 8.187 15.739 18.632 18.632 0 0 1-4.98 12.888 26.179 26.179 0 0 1-12.727 7.681v.254q9.712 1.206 15.52 7.173a20.06 20.06 0 0 1 5.807 14.536q0 12.5-8.95 19.836t-24.44 7.332Zm20.5-75.918v21.582h9.014q6.348 0 10-3.079a10.493 10.493 0 0 0 3.65-8.474q0-10.029-14.98-10.029Zm0 36.816v23.994h11.108q7.109 0 11.14-3.3a11.027 11.027 0 0 0 4.031-9.014 10.289 10.289 0 0 0-3.967-8.569q-3.967-3.11-11.077-3.11Zm123.655-35.229h-25.962v74.331h-20.567V55.709H519.2V39.015h72.364Zm88.61 74.331h-23.55l-14.15-23.423q-1.587-2.666-3.047-4.761a26.448 26.448 0 0 0-2.953-3.586 11.738 11.738 0 0 0-3.11-2.285 7.9 7.9 0 0 0-3.523-.793h-5.522v34.848h-20.5V39.015h32.5q33.135 0 33.135 24.756a25.636 25.636 0 0 1-1.46 8.792 24.423 24.423 0 0 1-4.126 7.268 26.154 26.154 0 0 1-6.443 5.586 33.227 33.227 0 0 1-8.411 3.682v.254a13.045 13.045 0 0 1 3.936 2.063 28.182 28.182 0 0 1 3.682 3.333 46.492 46.492 0 0 1 3.4 4.094q1.619 2.19 2.952 4.285Zm-55.856-75.664v25.327h8.887q6.6 0 10.6-3.809a12.71 12.71 0 0 0 4.063-9.585q0-11.934-14.282-11.934Zm101.562 77.251q-19.551 0-31.865-12.727T681.7 85.733q0-21.582 12.5-34.912t33.135-13.33q19.487 0 31.516 12.759t12.029 33.643q0 21.455-12.473 34.595t-32.527 13.139Zm.889-76.489q-10.791 0-17.139 8.093t-6.348 21.423q0 13.521 6.348 21.392a20.339 20.339 0 0 0 16.631 7.871q10.6 0 16.821-7.649t6.221-21.228q0-14.155-6.03-22.026t-16.504-7.874Zm141.105 74.902h-20.69l-37.51-57.192a82.714 82.714 0 0 1-4.57-7.554h-.254q.508 4.824.508 14.727v50.019h-19.36V39.015h22.09L844.2 94.43q2.476 3.745 4.57 7.427h.254a97.32 97.32 0 0 1-.508-12.5V39.015h19.358Zm41.323 0h-20.5V39.015h20.5Zm85.947-3.237q-9.966 4.824-26.025 4.824-20.945 0-32.945-12.315t-12-32.817q0-21.836 13.489-35.42t35.011-13.584q13.33 0 22.471 3.364v19.741a39.817 39.817 0 0 0-20.82-5.459q-12.822 0-20.693 8.062t-7.869 21.841q0 13.2 7.427 21.042t20 7.839a42.649 42.649 0 0 0 21.963-5.84Zm64.623 3.237h-47.227V39.015h10.664v81.377h36.563Zm88.232 0h-11.806l-9.649-25.518h-38.594l-9.076 25.518h-11.87l34.912-91.025h11.045Zm-24.946-35.1-14.279-38.787a37.137 37.137 0 0 1-1.4-6.094h-.254a34 34 0 0 1-1.46 6.094l-14.155 38.787Zm38.34 35.1V39.015h25.9q11.807 0 18.726 5.776a18.669 18.669 0 0 1 6.919 15.044 22.137 22.137 0 0 1-4.189 13.457 22.591 22.591 0 0 1-11.553 8.125v.254q9.2 1.079 14.727 6.951t5.522 15.266q0 11.68-8.379 18.916t-21.14 7.236Zm10.664-81.377v29.39h10.917q8.76 0 13.774-4.221t5.015-11.9q0-13.267-17.456-13.267Zm0 38.975v32.754h14.473q9.395 0 14.568-4.443t5.176-12.188q0-16.123-21.963-16.123Zm59.6 38.721V113.79a24.409 24.409 0 0 0 5.173 3.428 41.913 41.913 0 0 0 6.348 2.571 50.531 50.531 0 0 0 6.7 1.619 37.338 37.338 0 0 0 6.221.571q9.839 0 14.695-3.65t4.856-10.505a12.335 12.335 0 0 0-1.619-6.411 18.234 18.234 0 0 0-4.475-4.983 44.406 44.406 0 0 0-6.76-4.316q-3.9-2.063-8.411-4.348-4.761-2.412-8.887-4.888a38.508 38.508 0 0 1-7.173-5.459 22.771 22.771 0 0 1-4.792-6.76 20.925 20.925 0 0 1-1.746-8.855 20.822 20.822 0 0 1 2.729-10.823 23.411 23.411 0 0 1 7.173-7.585 32.518 32.518 0 0 1 10.125-4.443 46.359 46.359 0 0 1 11.584-1.46q13.457 0 19.614 3.237v12q-8.062-5.586-20.693-5.586a34.033 34.033 0 0 0-6.982.73 19.723 19.723 0 0 0-6.221 2.38 13.781 13.781 0 0 0-4.443 4.253 11.288 11.288 0 0 0-1.714 6.348 13.069 13.069 0 0 0 1.3 6.03 14.78 14.78 0 0 0 3.84 4.634 38.248 38.248 0 0 0 6.189 4.063q3.65 1.968 8.411 4.316 4.888 2.412 9.268 5.078a42.361 42.361 0 0 1 7.681 5.9 26.232 26.232 0 0 1 5.237 7.173 20.164 20.164 0 0 1 1.936 9.014 22.857 22.857 0 0 1-2.634 11.394 21.62 21.62 0 0 1-7.113 7.583 31.05 31.05 0 0 1-10.31 4.222 56.49 56.49 0 0 1-12.314 1.3 50.182 50.182 0 0 1-5.332-.349q-3.174-.349-6.475-1.016a52.832 52.832 0 0 1-6.252-1.65 19.455 19.455 0 0 1-4.73-2.189Z"/><path d="M78.821 159.228a78.7 78.7 0 0 1-12.285-.961c.019-.049 3.243-6.242 7.085-14.738a254.173 254.173 0 0 0 11.633-30.07 144.081 144.081 0 0 0 5.176-26.338 101.845 101.845 0 0 0 .587-10.949c0-.041 2.667-6.357 6.315-15.105a130.284 130.284 0 0 0 5.623-21.148c.279 3.18.543 6.3.777 9.27.876 10.947 1.955 26.57 2.115 38.7a199.622 199.622 0 0 1-1.179 26.084 73.057 73.057 0 0 1-1.408 8.465 40.12 40.12 0 0 0 4.867-2.488 64.292 64.292 0 0 0 11.2-8.424 69.673 69.673 0 0 0 20.9-40.244c5.847-35.557-22.671-59.576-28.458-64.037a78.393 78.393 0 0 1 18.556 12.049 79.748 79.748 0 0 1 14.5 16.754 79.942 79.942 0 0 1 12.809 43.545 81.064 81.064 0 0 1-1.606 16.066 79.892 79.892 0 0 1-4.59 14.91 79.866 79.866 0 0 1-7.269 13.525 79.6 79.6 0 0 1-9.623 11.777 79.66 79.66 0 0 1-11.664 9.729 78.846 78.846 0 0 1-13.391 7.338 77.869 77.869 0 0 1-14.793 4.645 78.961 78.961 0 0 1-15.877 1.645Zm-47.9-16.381a80.7 80.7 0 0 1-7.833-6.941 80.118 80.118 0 0 1-9.623-11.787 79.843 79.843 0 0 1-7.265-13.52 79.622 79.622 0 0 1-4.594-14.928 80.945 80.945 0 0 1-1.6-16.059 80.971 80.971 0 0 1 1.6-16.047 79.636 79.636 0 0 1 4.592-14.926 79.47 79.47 0 0 1 7.269-13.527 79.661 79.661 0 0 1 9.625-11.787 79.689 79.689 0 0 1 11.665-9.721 78.953 78.953 0 0 1 13.39-7.342A78.05 78.05 0 0 1 62.94 1.616 78.9 78.9 0 0 1 78.821-.001a77.929 77.929 0 0 1 30.733 6.279 71.6 71.6 0 0 0-19.069-2.486 65.648 65.648 0 0 0-50 22.352 60.813 60.813 0 0 0-14.674 50.537 84.851 84.851 0 0 0 4.772 18.209 64.834 64.834 0 0 0 3.2 7.139 76.072 76.072 0 0 0 9.719-5.973 188.545 188.545 0 0 0 25.377-21.773 187.687 187.687 0 0 0 24.313-30.975 170.042 170.042 0 0 0 8.674-15.174.686.686 0 0 0 0 .107l.089.914a201.85 201.85 0 0 1-7.907 28.521 146.316 146.316 0 0 1-20.114 38.689 338.784 338.784 0 0 1-15.649 19.234c-4.389 4.975-8.9 9.828-13.435 14.35-7.922 7.928-13.336 12.4-13.928 12.9Z" data-name="Sustracción 2"/></g></svg>